<!DOCTYPE svg PUBLIC "-//W3C//DTD SVG 20010904//EN" "http://www.w3.org/TR/2001/REC-SVG-20010904/DTD/svg10.dtd">
<svg version="1.0" xmlns="http://www.w3.org/2000/svg" width="316.227766017" height="316.227766017" viewBox="0 0 4000 4000" preserveAspectRatio="xMidYMid meet">
<g id="layer101" fill="#c52334" stroke="none">
 <path d="M2197 3568 c133 -195 155 -312 75 -400 -50 -56 -98 -76 -531 -223 -757 -256 -816 -287 -912 -476 -48 -96 -83 -226 -104 -386 -24 -185 -20 -197 20 -57 44 153 117 266 217 340 72 53 126 73 641 245 465 156 698 242 802 297 89 47 110 81 109 172 -2 80 -34 162 -109 275 -55 82 -239 295 -255 295 -5 0 16 -37 47 -82z"/>
 <path d="M1873 3559 c3 -13 8 -44 12 -69 6 -44 5 -47 -39 -87 -25 -23 -43 -44 -38 -46 4 -3 32 -8 63 -11 55 -7 55 -7 82 -61 15 -30 31 -55 35 -55 5 0 19 25 32 54 l23 55 56 7 c31 3 60 9 64 11 5 3 -12 26 -37 52 -44 45 -45 47 -36 86 5 22 10 50 10 63 l0 23 -56 -31 -55 -32 -61 32 c-61 33 -61 33 -55 9z"/>
 <path d="M2370 3469 c0 -3 26 -48 57 -100 99 -165 136 -253 141 -341 4 -64 1 -84 -18 -122 -46 -95 -149 -142 -800 -361 -447 -150 -535 -182 -676 -250 -214 -103 -298 -226 -340 -495 -18 -116 -31 -460 -18 -460 6 0 18 44 28 98 59 324 180 498 435 625 96 49 171 74 856 292 246 79 543 188 643 236 61 29 90 50 112 80 101 140 -2 370 -309 689 -60 63 -110 112 -111 109z"/>
 <path d="M1564 3272 c6 -48 5 -52 -26 -81 -28 -26 -31 -33 -18 -41 8 -5 29 -10 46 -10 26 0 33 -6 53 -47 l23 -48 24 48 c20 38 29 47 52 48 15 0 35 4 45 7 16 7 14 11 -14 40 -29 30 -31 35 -24 82 l7 51 -47 -23 -46 -23 -41 24 -41 23 7 -50z"/>
 <path d="M2724 3118 c249 -382 246 -538 -11 -649 -117 -50 -284 -108 -638 -220 -698 -221 -926 -312 -1078 -427 -125 -96 -225 -344 -261 -652 -22 -184 -27 -620 -8 -620 4 0 16 39 26 87 55 263 193 531 364 706 190 194 434 297 1164 492 156 42 330 90 387 106 345 100 535 208 593 336 18 39 22 67 23 148 0 92 -3 105 -31 165 -58 120 -168 244 -419 469 -176 158 -175 157 -111 59z"/>
 <path d="M1323 3064 c5 -32 3 -43 -19 -65 l-25 -26 38 -6 c30 -5 41 -13 52 -38 l14 -32 15 29 c18 35 30 44 60 44 28 0 28 11 1 36 -16 15 -20 27 -16 56 l5 37 -34 -17 c-32 -15 -36 -15 -66 2 l-31 19 6 -39z"/>
 <path d="M2670 1873 c-14 -2 -95 -22 -180 -43 -547 -136 -1076 -331 -1221 -449 l-24 -20 28 -82 c57 -167 193 -452 274 -576 107 -163 345 -302 569 -334 182 -26 424 30 539 124 36 30 28 44 -42 78 -53 26 -117 28 -236 9 -93 -15 -178 -9 -238 17 l-44 19 115 -3 c130 -5 147 1 129 40 -10 22 -9 31 5 52 13 20 25 25 55 25 44 0 64 -18 64 -59 0 -26 2 -27 79 -38 65 -8 86 -16 119 -43 41 -32 42 -33 118 -26 319 26 458 171 396 411 -9 33 -22 67 -30 75 -13 12 -15 10 -15 -21 0 -68 -14 -76 -152 -83 -210 -12 -351 23 -398 99 -28 46 -40 127 -29 200 12 75 129 431 204 618 6 14 2 17 -26 16 -19 -1 -45 -4 -59 -6z"/>
 </g>
<g id="layer102" fill="#1f5ba7" stroke="none">
 <path d="M1873 3559 c3 -13 8 -44 12 -69 6 -44 5 -47 -39 -87 -25 -23 -43 -44 -38 -46 4 -3 32 -8 63 -11 55 -7 55 -7 82 -61 15 -30 31 -55 35 -55 5 0 19 25 32 54 l23 55 56 7 c31 3 60 9 64 11 5 3 -12 26 -37 52 -44 45 -45 47 -36 86 5 22 10 50 10 63 l0 23 -56 -31 -55 -32 -61 32 c-61 33 -61 33 -55 9z"/>
 <path d="M1564 3272 c6 -48 5 -52 -26 -81 -28 -26 -31 -33 -18 -41 8 -5 29 -10 46 -10 26 0 33 -6 53 -47 l23 -48 24 48 c20 38 29 47 52 48 15 0 35 4 45 7 16 7 14 11 -14 40 -29 30 -31 35 -24 82 l7 51 -47 -23 -46 -23 -41 24 -41 23 7 -50z"/>
 <path d="M1323 3064 c5 -32 3 -43 -19 -65 l-25 -26 38 -6 c30 -5 41 -13 52 -38 l14 -32 15 29 c18 35 30 44 60 44 28 0 28 11 1 36 -16 15 -20 27 -16 56 l5 37 -34 -17 c-32 -15 -36 -15 -66 2 l-31 19 6 -39z"/>
 <path d="M2670 1873 c-14 -2 -95 -22 -180 -43 -547 -136 -1076 -331 -1221 -449 l-24 -20 28 -82 c57 -167 193 -452 274 -576 107 -163 345 -302 569 -334 182 -26 424 30 539 124 36 30 28 44 -42 78 -53 26 -117 28 -236 9 -93 -15 -178 -9 -238 17 l-44 19 115 -3 c130 -5 147 1 129 40 -10 22 -9 31 5 52 13 20 25 25 55 25 44 0 64 -18 64 -59 0 -26 2 -27 79 -38 65 -8 86 -16 119 -43 41 -32 42 -33 118 -26 319 26 458 171 396 411 -9 33 -22 67 -30 75 -13 12 -15 10 -15 -21 0 -68 -14 -76 -152 -83 -210 -12 -351 23 -398 99 -28 46 -40 127 -29 200 12 75 129 431 204 618 6 14 2 17 -26 16 -19 -1 -45 -4 -59 -6z"/>
 </g>

</svg>